<?xml version="1.0" encoding="UTF-8"?>
<svg id="Rust" xmlns="http://www.w3.org/2000/svg" version="1.1" width="16" height="16"  made-by="BurritoBandit28">
  <defs>
    <style>
      .cls-1 {
        stroke: #f68f45;
        stroke-miterlimit: 10;
      }

      .cls-1, .cls-2 {
        fill: #f68f45;
      }

      .cls-2 {
        stroke-width: 0px;
      }
    </style>
  </defs>
  <path class="cls-1" d="M8.3,1.8l1,1.4c.2.3,0,.6-.3.6h-2c-.3,0-.5-.4-.3-.6l1-1.4c.2-.2.5-.2.6,0Z"/>
  <path class="cls-1" d="M2,4.1v1.7c0,.3.4.5.6.3l1.6-1.2c.3-.2.2-.6-.1-.7l-1.6-.5c-.3,0-.5.1-.5.4Z"/>
  <path class="cls-1" d="M4.5,2.5l-.4,1.6c0,.3.2.6.5.5l1.9-.7c.3-.1.3-.5,0-.7l-1.4-.9c-.2-.1-.5,0-.6.2h0Z"/>
  <path class="cls-2" d="M6.3,12c0,.3.2.8,0,1-.4.4-1.7-.9-1.9-.7,0,.1,1.2,1.7.4,2.1-.5.2-2.1-.2-2.4-1.5-.3-1.1.4-2.1,1.5-2.4,1.1-.3,2.1.4,2.4,1.5Z"/>
  <path class="cls-1" d="M14,4.2v1.7c0,.3-.4.5-.6.3l-1.6-1.2c-.3-.2-.2-.6.1-.7l1.6-.5c.3,0,.5.1.5.4Z"/>
  <path class="cls-1" d="M11.5,2.6l.4,1.6c0,.3-.2.6-.5.5l-1.9-.7c-.3-.1-.3-.5,0-.7l1.4-.9c.2-.1.5,0,.6.2h0Z"/>
  <path class="cls-2" d="M3.6,10.6l-.4-.9-1.5-1.6-.4,1.7c0,.4,0,.8.3,1.1l.8.8c.6.6,1.1.6,1.1.6,0,0,.6-.6.6-.5s-.6-1.2-.6-1.2Z"/>
  <path class="cls-2" d="M8,3.1c-3.8,0-6.8,1.9-6.8,4.2s.1,1,.4,1.4l1.9,1.6c.3-.1.6-.2.9-.2.9,0,1.6.5,2,1.3.5,0,1.1.1,1.6.1s1.1,0,1.6-.1c.4-.8,1.1-1.3,2-1.3s.6,0,.9.2l1.9-1.6c.3-.4.4-.9.4-1.4,0-2.3-3.1-4.2-6.8-4.2ZM6,10c-.7,0-1.4-.8-1.4-1.8s.6-1.8,1.4-1.8,1.4.8,1.4,1.8-.6,1.8-1.4,1.8ZM10,10c-.7,0-1.4-.8-1.4-1.8s.6-1.8,1.4-1.8,1.4.8,1.4,1.8-.6,1.8-1.4,1.8Z"/>
  <path class="cls-2" d="M12.1,10.5c1.1.3,1.7,1.3,1.5,2.4-.3,1.3-1.9,1.7-2.4,1.5-.8-.4.5-2,.4-2.1-.1-.2-1.5,1.1-1.9.7-.2-.2-.1-.7,0-1,.3-1.1,1.3-1.7,2.4-1.5Z"/>
  <path class="cls-2" d="M11.8,11.7s.6.5.6.5c0,0,.5,0,1.1-.6l.8-.8c.3-.3.4-.7.3-1.1l-.4-1.7-1.5,1.6-.4.9s-.6,1.2-.6,1.2Z"/>
</svg>