<?xml version="1.0" encoding="UTF-8"?>
<svg xmlns="http://www.w3.org/2000/svg" version="1.1" width="16" height="16"  made-by="BurritoBandit28">
  <defs>
    <style>
      .cls-1 {
        fill: #e0e0e0;
      }

      .cls-1, .cls-2 {
        stroke-width: 0px;
      }

      .cls-2 {
        fill: #f68f45;
      }

      .cls-3 {
        display: none;
      }
    </style>
  </defs>
  <g id="ferris">
    <circle class="cls-2" cx="4.5" cy="7.4" r="1.3"/>
    <circle class="cls-2" cx="11.5" cy="7.4" r="1.3"/>
    <g>
      <polygon class="cls-2" points=".8 10.8 .8 10.7 .8 10.7 .8 10.8"/>
      <path class="cls-2" d="M.8,10.7s0,0,0,0v-.3c0,.2,0,.1,0,.2Z"/>
      <polygon class="cls-2" points="15.2 10.8 15.2 10.7 15.2 10.7 15.2 10.8"/>
      <path class="cls-2" d="M15.1,3.6h0c-.2-.5-.8-.8-1.3-.7-.3,0-.7.3-.9,0l-.7-1.1c-.3-.3-.8-.4-1.2-.3,0,0-.2,0-.2.1l-.3.3c-.3.2-.5.5-.8.3l-1-.9c-.2-.1-.4-.1-.5-.1-.1,0-.4,0-.5.1l-1,.9c-.3.2-.5,0-.8-.3l-.3-.3c0,0-.1,0-.2-.1-.4-.1-.9,0-1.2.3l-.7,1.1c-.2.3-.6,0-.9,0-.5-.1-1.1.2-1.3.7h0c0,.2,0,.3,0,.4v6.7c0,2.8,1.5,4,2.4,4,3,.1,3,.4,3.4-.6,0-.2,0-.3,0-.7-.1-.7-.3-1.5-1.1-2.2-.8-.6-1.6-.6-2-.6-.1,0-.2,0-.3-.1,0,0-.1-.2-.1-.2,0,0,0,0,0,0h0s0,0,0,0c.3,0,1.6-.2,2.7.7.3.2.6.9.8,1.2,0,0,.1.1.2.1h1.1,0s1.1,0,1.1,0c0,0,.2,0,.2-.1.2-.3.6-1,.8-1.2,1.1-.9,2.5-.7,2.7-.7,0,0,0,0,0,0h0s0,0,0,0c0,0-.1.2-.1.2,0,0-.2.1-.3.1-.4,0-1.2,0-2,.6-.8.6-1,1.5-1.1,2.2,0,.3,0,.5,0,.7.4,1,.4.8,3.4.6.9,0,2.4-1.2,2.4-4v-6.7c0-.1,0-.3,0-.4ZM4.2,9.4c-1.1,0-2-.9-2-2,0-1.1.9-2,2-2,1.1,0,2,.9,2,2,0,1.1-.9,2-2,2ZM8.5,8.7c0,.3-.2.5-.5.5s-.5-.2-.5-.5v-1.5c0-.3.2-.5.5-.5s.5.2.5.5v1.5ZM11.7,9.4c-1,0-1.9-.9-1.9-1.9,0-1.1.9-2,2-2,1,0,1.9.9,1.9,1.9,0,1.1-.9,2-2,2Z"/>
      <path class="cls-2" d="M15.2,10.4v.3s0,0,0,0c0-.1,0,0,0-.2Z"/>
    </g>
  </g>
  <g id="Layer_2" data-name="Layer 2" class="cls-3">
    <path class="cls-1" d="M7,1l-.6,2.3c-.2,0-.5.2-.7.3l-2-1.2-1.4,1.4,1.2,2c-.1.2-.2.4-.3.7l-2.3.6v2l2.3.6c0,.2.2.5.3.7l-1.2,2,1.4,1.4,2-1.2c.2.1.4.2.7.3l.6,2.3h2l.6-2.3c.2,0,.5-.2.7-.3l2,1.2,1.4-1.4-1.2-2c.1-.2.2-.4.3-.7l2.3-.6v-2l-2.3-.6c0-.2-.2-.5-.3-.7l1.2-2-1.4-1.4-2,1.2c-.2-.1-.5-.2-.7-.3l-.6-2.3h-2ZM8,6c1.1,0,2,.9,2,2s-.9,2-2,2-2-.9-2-2,.9-2,2-2Z"/>
  </g>
</svg>