<?xml version="1.0" encoding="UTF-8"?>
<svg id="ferris" xmlns="http://www.w3.org/2000/svg" viewBox="0 0 1025.545 595.505" made-by="BurritoBandit28">
  <circle cx="366.309" cy="275.496" r="54.115" style="fill: #f68f45; stroke-width: 0px;"/>
  <path d="M312.642,402.581c2.774,3.917,7.359,6.138,12.151,5.865,16.207-.923,51.476.349,83.336,25.31,33.168,25.987,40.371,60.2,46.394,88.811,2.822,13.405,2.208,20.429-.663,27.836-16.722,43.141-15.599,31.836-140.333,26.07-37.664-1.741-97.049-39.044-99.805-156.713-.181-7.709-4.872-26.122,3.589-35.062,2.83-2.99,6.861-3.84,9.862-4.084h62.7c4.525,0,8.768,2.195,11.383,5.888l11.386,16.079Z" style="fill: #f68f45; fill-rule: evenodd; stroke-width: 0px;"/>
  <path d="M709.061,402.59c-2.774,3.917-7.359,6.138-12.151,5.864-16.207-.924-51.476.346-83.337,25.306-33.169,25.985-40.373,60.199-46.398,88.809-2.823,13.404-2.209,20.428.661,27.836,16.72,43.142,15.597,31.837,140.331,26.077,37.664-1.739,97.051-39.039,99.812-156.708.181-7.709,4.873-26.122-3.587-35.062-2.83-2.99-6.86-3.841-9.862-4.085l-62.7-.003c-4.525,0-8.769,2.194-11.384,5.887l-11.386,16.078Z" style="fill: #f68f45; fill-rule: evenodd; stroke-width: 0px;"/>
  <path d="M510.85,348.115c-11.95,0-21.635-8.807-21.635-19.663v-61.879c0-10.847,9.685-19.663,21.635-19.663.002,0,.004,0,.005,0l.005-230.519c-5.479.168-15.027,0-22.385,5.944l-42.561,38.882c-12.042,8.493-19.271-.901-33.303-10.841l-14.071-10.732c-2.668-2.035-5.657-3.641-8.883-4.56-16.067-4.578-38.21-.264-48.987,11.322l-30.404,44.047c-9.866,10.606-24.99,3.235-39.122.051h0c-20.893-4.708-45.131,7.44-53.862,26.997l-.517,1.157c-2.332,5.223-3.537,10.878-3.537,16.598v278.203c0,3.542.462,7.068,1.375,10.49l1.855,6.956c2.418,3.771,4.85,7.501,7.484,10.883l82.798-47.086c10.195-1.271,67.255-7.576,112.842,28.141,11.338,8.883,26.408,35.31,34.848,49.488,1.884,3.165,5.296,5.099,8.979,5.099h47.442l.003-129.314s-.002,0-.003,0ZM356.799,356.298c-45.848.85-83.186-36.488-82.336-82.336.801-43.208,36.059-78.467,79.267-79.268,45.848-.85,83.186,36.488,82.336,82.336-.801,43.208-36.059,78.466-79.268,79.267Z" style="fill: #f68f45; stroke-width: 0px;"/>
  <circle cx="655.4" cy="275.502" r="54.115" style="fill: #f68f45; stroke-width: 0px;"/>
  <path d="M510.853,348.115l-.003,129.314,47.442.002c3.683,0,7.095-1.934,8.979-5.099,8.44-14.178,23.512-40.604,34.85-49.486,45.589-35.715,102.648-29.408,112.844-28.136l82.795,47.09c2.634-3.382,5.067-7.112,7.485-10.883l1.855-6.956c.913-3.422,1.375-6.948,1.375-10.49l.013-278.203c0-5.72-1.205-11.375-3.536-16.598l-.517-1.157c-8.73-19.557-32.967-31.707-53.861-27h0c-14.131,3.184-29.256,10.554-39.122-.052l-30.402-44.048c-10.777-11.586-32.92-15.902-48.987-11.324-3.226.919-6.216,2.526-8.884,4.56l-14.071,10.731c-14.033,9.939-21.262,19.333-33.304,10.84l-42.559-38.884c-7.357-5.945-16.906-5.778-22.385-5.945l-.005,230.519s.004,0,.005,0c11.95,0,21.635,8.817,21.634,19.664l-.003,61.879c0,10.856-9.686,19.663-21.636,19.662-.001,0-.002,0-.003,0ZM585.642,277.034c-.848-45.848,36.492-83.185,82.34-82.332,43.209.803,78.465,36.063,79.263,79.271.848,45.848-36.492,83.184-82.34,82.332-43.208-.803-78.465-36.062-79.264-79.271Z" style="fill: #f68f45; stroke-width: 0px;"/>
</svg>