<?xml version="1.0" encoding="UTF-8"?>
<svg xmlns="http://www.w3.org/2000/svg" version="1.1" viewBox="0 0 500 500"  made-by="BurritoBandit28">
  <defs>
    <style>
      .cls-1 {
        fill: #e0e0e0;
      }

      .cls-1, .cls-2 {
        stroke-width: 0px;
      }

      .cls-2 {
        fill: #f68f45;
      }

      .cls-3 {
        display: none;
      }
    </style>
  </defs>
  <g id="ferris">
    <circle class="cls-2" cx="140.8" cy="232" r="40.9"/>
    <circle class="cls-2" cx="359.2" cy="232" r="40.9"/>
    <g>
      <path class="cls-2" d="M25.1,336.3v-2.2s0,0,0,0v2.2Z"/>
      <path class="cls-2" d="M25,333c0,.4,0,.7,0,1.1v-8.8c0,5.8,0,4.4,0,7.7Z"/>
      <path class="cls-2" d="M474.9,336.3v-2.2s0,0,0,0v2.1Z"/>
      <path class="cls-2" d="M472.3,113.5l-.4-.9c-6.6-14.8-24.9-24-40.7-20.4-10.7,2.4-22.1,8-29.6,0l-23-33.3c-8.1-8.8-24.9-12-37-8.6-2.4.7-4.7,1.9-6.7,3.4l-10.6,8.1c-10.6,7.5-16.1,14.6-25.2,8.2l-32.2-29.4c-5.6-4.5-12.8-4.4-16.9-4.5-4.1.1-11.4,0-16.9,4.5l-32.2,29.4c-9.1,6.4-14.6-.7-25.2-8.2l-10.6-8.1c-2-1.5-4.3-2.8-6.7-3.4-12.1-3.5-28.9-.2-37,8.6l-23,33.3c-7.5,8-18.9,2.4-29.6,0-15.8-3.6-34.1,5.6-40.7,20.4l-.4.9c-1.8,3.9-2.7,8.2-2.7,12.5v208.1c.4,88.1,47.5,124.1,75.8,125.4,94.3,4.4,93.4,12.9,106.1-19.7,2.2-5.6,2.6-10.9.5-21-4.6-21.6-10-47.5-35.1-67.1-24.1-18.9-50.7-19.8-63-19.1-3.6.2-7.1-1.5-9.2-4.4,0-.1-4-5.6-4.2-6,0,0-.2,0-.2,0h.2c0-.1,0,0,0,0,8.1-1,50.8-5.5,85.1,21.3,8.6,6.7,20,26.7,26.3,37.4,1.4,2.4,4,3.9,6.8,3.9h35.9,0s35.9,0,35.9,0c2.8,0,5.4-1.5,6.8-3.9,6.4-10.7,17.8-30.7,26.3-37.4,34.2-26.8,77-22.3,85.1-21.3,0,0,0,0,0,0h.2c0,.1-.2,0-.2,0-.3.4-4.2,5.9-4.2,6-2.1,3-5.6,4.6-9.2,4.4-12.2-.7-38.9.3-63,19.1-25.1,19.6-30.5,45.5-35.1,67.1-2.1,10.1-1.7,15.4.5,21,12.6,32.6,11.8,24.1,106.1,19.7,28.3-1.3,75.4-37.3,75.8-125.3V126c0-4.3-.9-8.6-2.7-12.5ZM132.4,293.1c-33.7,0-61.1-27.3-61.1-61.1,0-33.7,27.3-61.1,61.1-61.1,33.7,0,61.1,27.3,61.1,61.1,0,33.7-27.3,61.1-61.1,61.1ZM266.6,271.9c0,8.2-7.5,15-16.5,15s-16-6.7-16-14.9v-46.8c0-8.2,7-14.9,16-14.9s16.6,6.5,16.5,14.7v46.8ZM366.4,293.1c-32.7-.6-59.3-27.3-59.9-59.9-.6-34.6,27.6-62.9,62.2-62.2,32.7.6,59.3,27.3,59.9,59.9.6,34.6-27.6,62.9-62.2,62.2Z"/>
      <path class="cls-2" d="M474.9,325.2v8.9c0-.4,0-.7,0-1.1,0-3.3,0-2,0-7.7Z"/>
    </g>
  </g>
  <g id="Layer_2" data-name="Layer 2" class="cls-3">
    <path class="cls-1" d="M249,243l-.6,2.3c-.2,0-.5.2-.7.3l-2-1.2-1.4,1.4,1.2,2c-.1.2-.2.4-.3.7l-2.3.6v2l2.3.6c0,.2.2.5.3.7l-1.2,2,1.4,1.4,2-1.2c.2.1.4.2.7.3l.6,2.3h2l.6-2.3c.2,0,.5-.2.7-.3l2,1.2,1.4-1.4-1.2-2c.1-.2.2-.4.3-.7l2.3-.6v-2l-2.3-.6c0-.2-.2-.5-.3-.7l1.2-2-1.4-1.4-2,1.2c-.2-.1-.5-.2-.7-.3l-.6-2.3h-2ZM250,248c1.1,0,2,.9,2,2s-.9,2-2,2-2-.9-2-2,.9-2,2-2Z"/>
  </g>
</svg>